<mxfile host="app.diagrams.net" modified="2024-03-13T23:20:01.722Z" agent="Mozilla/5.0 (Windows NT 10.0; Win64; x64) AppleWebKit/537.36 (KHTML, like Gecko) Chrome/122.0.0.0 Safari/537.36" etag="0MkdjL5gSNFrH7m3-bpt" version="24.0.6" type="device">
  <diagram name="Página-1" id="JE6c8CtR_E6KVgc73FYh">
    <mxGraphModel dx="1161" dy="682" grid="1" gridSize="10" guides="1" tooltips="1" connect="1" arrows="1" fold="1" page="1" pageScale="1" pageWidth="827" pageHeight="1169" math="0" shadow="0">
      <root>
        <mxCell id="0" />
        <mxCell id="1" parent="0" />
        <mxCell id="OmmRx7XeorJ42gYjC4it-8" value="" style="rounded=0;whiteSpace=wrap;html=1;" parent="1" vertex="1">
          <mxGeometry x="230" y="70" width="400" height="1090" as="geometry" />
        </mxCell>
        <mxCell id="OmmRx7XeorJ42gYjC4it-7" value="" style="endArrow=none;html=1;rounded=0;entryX=0.026;entryY=0.434;entryDx=0;entryDy=0;entryPerimeter=0;" parent="1" target="OmmRx7XeorJ42gYjC4it-6" edge="1">
          <mxGeometry width="50" height="50" relative="1" as="geometry">
            <mxPoint x="180" y="530" as="sourcePoint" />
            <mxPoint x="-290" y="170" as="targetPoint" />
          </mxGeometry>
        </mxCell>
        <mxCell id="OmmRx7XeorJ42gYjC4it-6" value="Gerenciar receitas" style="ellipse;whiteSpace=wrap;html=1;" parent="1" vertex="1">
          <mxGeometry x="290" y="740" width="120" height="80" as="geometry" />
        </mxCell>
        <mxCell id="OmmRx7XeorJ42gYjC4it-9" value="&lt;font style=&quot;font-size: 16px;&quot;&gt;&lt;b&gt;Sistema web - Picnic Caseiros&lt;/b&gt;&lt;/font&gt;" style="text;html=1;align=center;verticalAlign=middle;resizable=0;points=[];autosize=1;strokeColor=none;fillColor=none;" parent="1" vertex="1">
          <mxGeometry x="305" y="90" width="250" height="30" as="geometry" />
        </mxCell>
        <mxCell id="kUVER4uhqFUnGBVt8rP3-1" value="" style="endArrow=none;html=1;rounded=0;exitX=0;exitY=0.5;exitDx=0;exitDy=0;" parent="1" source="kUVER4uhqFUnGBVt8rP3-10" edge="1">
          <mxGeometry width="50" height="50" relative="1" as="geometry">
            <mxPoint x="180" y="425" as="sourcePoint" />
            <mxPoint x="200" y="450" as="targetPoint" />
          </mxGeometry>
        </mxCell>
        <mxCell id="kUVER4uhqFUnGBVt8rP3-3" value="" style="endArrow=none;html=1;rounded=0;entryX=0.041;entryY=0.245;entryDx=0;entryDy=0;entryPerimeter=0;" parent="1" target="kUVER4uhqFUnGBVt8rP3-4" edge="1">
          <mxGeometry width="50" height="50" relative="1" as="geometry">
            <mxPoint x="180" y="530" as="sourcePoint" />
            <mxPoint x="-300" y="10" as="targetPoint" />
          </mxGeometry>
        </mxCell>
        <mxCell id="kUVER4uhqFUnGBVt8rP3-4" value="Gerenciar precificação dos produtos" style="ellipse;whiteSpace=wrap;html=1;" parent="1" vertex="1">
          <mxGeometry x="290" y="850" width="120" height="80" as="geometry" />
        </mxCell>
        <mxCell id="kUVER4uhqFUnGBVt8rP3-7" value="Gerenciar vendas realizadas" style="ellipse;whiteSpace=wrap;html=1;" parent="1" vertex="1">
          <mxGeometry x="290" y="630" width="120" height="80" as="geometry" />
        </mxCell>
        <mxCell id="kUVER4uhqFUnGBVt8rP3-10" value="Monitorar fidelização de clientes" style="ellipse;whiteSpace=wrap;html=1;" parent="1" vertex="1">
          <mxGeometry x="290" y="300" width="120" height="80" as="geometry" />
        </mxCell>
        <mxCell id="kUVER4uhqFUnGBVt8rP3-18" value="" style="endArrow=classic;html=1;rounded=0;dashed=1;dashPattern=8 8;exitX=1;exitY=0.5;exitDx=0;exitDy=0;entryX=0.497;entryY=-0.065;entryDx=0;entryDy=0;entryPerimeter=0;" parent="1" source="kUVER4uhqFUnGBVt8rP3-10" target="kUVER4uhqFUnGBVt8rP3-36" edge="1">
          <mxGeometry width="50" height="50" relative="1" as="geometry">
            <mxPoint x="551.7599999999998" y="320.0000000000001" as="sourcePoint" />
            <mxPoint x="550" y="430" as="targetPoint" />
          </mxGeometry>
        </mxCell>
        <mxCell id="kUVER4uhqFUnGBVt8rP3-19" value="&amp;lt;&amp;lt;extend&amp;gt;&amp;gt;" style="edgeLabel;html=1;align=center;verticalAlign=middle;resizable=0;points=[];" parent="kUVER4uhqFUnGBVt8rP3-18" vertex="1" connectable="0">
          <mxGeometry x="-0.2258" y="-1" relative="1" as="geometry">
            <mxPoint x="-8" as="offset" />
          </mxGeometry>
        </mxCell>
        <mxCell id="kUVER4uhqFUnGBVt8rP3-24" value="Gerenciar fornecedores" style="ellipse;whiteSpace=wrap;html=1;" parent="1" vertex="1">
          <mxGeometry x="290" y="960" width="120" height="80" as="geometry" />
        </mxCell>
        <mxCell id="kUVER4uhqFUnGBVt8rP3-25" value="Usuário" style="shape=umlActor;verticalLabelPosition=bottom;verticalAlign=top;html=1;" parent="1" vertex="1">
          <mxGeometry x="150" y="180" width="30" height="60" as="geometry" />
        </mxCell>
        <mxCell id="kUVER4uhqFUnGBVt8rP3-27" value="" style="endArrow=none;html=1;rounded=0;" parent="1" edge="1">
          <mxGeometry width="50" height="50" relative="1" as="geometry">
            <mxPoint x="293" y="217" as="sourcePoint" />
            <mxPoint x="200" y="217" as="targetPoint" />
          </mxGeometry>
        </mxCell>
        <mxCell id="kUVER4uhqFUnGBVt8rP3-28" value="Agendar pedidos" style="ellipse;whiteSpace=wrap;html=1;" parent="1" vertex="1">
          <mxGeometry x="290" y="176" width="120" height="80" as="geometry" />
        </mxCell>
        <mxCell id="kUVER4uhqFUnGBVt8rP3-29" value="" style="endArrow=classic;html=1;rounded=0;" parent="1" edge="1">
          <mxGeometry width="50" height="50" relative="1" as="geometry">
            <mxPoint x="165" y="410" as="sourcePoint" />
            <mxPoint x="164.64" y="280" as="targetPoint" />
          </mxGeometry>
        </mxCell>
        <mxCell id="kUVER4uhqFUnGBVt8rP3-30" value="Administrador" style="shape=umlActor;verticalLabelPosition=bottom;verticalAlign=top;html=1;" parent="1" vertex="1">
          <mxGeometry x="150" y="430" width="30" height="60" as="geometry" />
        </mxCell>
        <mxCell id="kUVER4uhqFUnGBVt8rP3-31" value="Gerenciar insumos" style="ellipse;whiteSpace=wrap;html=1;" parent="1" vertex="1">
          <mxGeometry x="290" y="410" width="120" height="80" as="geometry" />
        </mxCell>
        <mxCell id="kUVER4uhqFUnGBVt8rP3-32" value="Gerenciar formas de venda" style="ellipse;whiteSpace=wrap;html=1;" parent="1" vertex="1">
          <mxGeometry x="290" y="520" width="120" height="80" as="geometry" />
        </mxCell>
        <mxCell id="kUVER4uhqFUnGBVt8rP3-33" value="" style="endArrow=none;html=1;rounded=0;exitX=0;exitY=0.5;exitDx=0;exitDy=0;" parent="1" source="kUVER4uhqFUnGBVt8rP3-31" edge="1">
          <mxGeometry width="50" height="50" relative="1" as="geometry">
            <mxPoint x="300" y="350" as="sourcePoint" />
            <mxPoint x="200" y="450" as="targetPoint" />
          </mxGeometry>
        </mxCell>
        <mxCell id="kUVER4uhqFUnGBVt8rP3-34" value="" style="endArrow=none;html=1;rounded=0;exitX=0.007;exitY=0.445;exitDx=0;exitDy=0;exitPerimeter=0;" parent="1" source="kUVER4uhqFUnGBVt8rP3-32" edge="1">
          <mxGeometry width="50" height="50" relative="1" as="geometry">
            <mxPoint x="300" y="460" as="sourcePoint" />
            <mxPoint x="200" y="450" as="targetPoint" />
          </mxGeometry>
        </mxCell>
        <mxCell id="kUVER4uhqFUnGBVt8rP3-35" value="" style="endArrow=none;html=1;rounded=0;exitX=0.007;exitY=0.35;exitDx=0;exitDy=0;exitPerimeter=0;" parent="1" source="kUVER4uhqFUnGBVt8rP3-7" edge="1">
          <mxGeometry width="50" height="50" relative="1" as="geometry">
            <mxPoint x="290" y="580" as="sourcePoint" />
            <mxPoint x="199" y="450" as="targetPoint" />
          </mxGeometry>
        </mxCell>
        <mxCell id="kUVER4uhqFUnGBVt8rP3-36" value="Gerar relatório" style="ellipse;whiteSpace=wrap;html=1;" parent="1" vertex="1">
          <mxGeometry x="480" y="460" width="120" height="80" as="geometry" />
        </mxCell>
        <mxCell id="kUVER4uhqFUnGBVt8rP3-37" value="" style="endArrow=classic;html=1;rounded=0;dashed=1;dashPattern=8 8;exitX=1;exitY=0.5;exitDx=0;exitDy=0;entryX=0;entryY=0;entryDx=0;entryDy=0;" parent="1" source="kUVER4uhqFUnGBVt8rP3-31" target="kUVER4uhqFUnGBVt8rP3-36" edge="1">
          <mxGeometry width="50" height="50" relative="1" as="geometry">
            <mxPoint x="420" y="350" as="sourcePoint" />
            <mxPoint x="550" y="465" as="targetPoint" />
          </mxGeometry>
        </mxCell>
        <mxCell id="kUVER4uhqFUnGBVt8rP3-38" value="&amp;lt;&amp;lt;extend&amp;gt;&amp;gt;" style="edgeLabel;html=1;align=center;verticalAlign=middle;resizable=0;points=[];" parent="kUVER4uhqFUnGBVt8rP3-37" vertex="1" connectable="0">
          <mxGeometry x="-0.2258" y="-1" relative="1" as="geometry">
            <mxPoint x="-8" as="offset" />
          </mxGeometry>
        </mxCell>
        <mxCell id="kUVER4uhqFUnGBVt8rP3-39" value="" style="endArrow=classic;html=1;rounded=0;dashed=1;dashPattern=8 8;exitX=1.007;exitY=0.315;exitDx=0;exitDy=0;entryX=0.058;entryY=0.713;entryDx=0;entryDy=0;exitPerimeter=0;entryPerimeter=0;" parent="1" source="kUVER4uhqFUnGBVt8rP3-32" target="kUVER4uhqFUnGBVt8rP3-36" edge="1">
          <mxGeometry width="50" height="50" relative="1" as="geometry">
            <mxPoint x="420" y="460" as="sourcePoint" />
            <mxPoint x="508" y="482" as="targetPoint" />
          </mxGeometry>
        </mxCell>
        <mxCell id="kUVER4uhqFUnGBVt8rP3-40" value="&amp;lt;&amp;lt;extend&amp;gt;&amp;gt;" style="edgeLabel;html=1;align=center;verticalAlign=middle;resizable=0;points=[];" parent="kUVER4uhqFUnGBVt8rP3-39" vertex="1" connectable="0">
          <mxGeometry x="-0.2258" y="-1" relative="1" as="geometry">
            <mxPoint x="-8" as="offset" />
          </mxGeometry>
        </mxCell>
        <mxCell id="kUVER4uhqFUnGBVt8rP3-41" value="" style="endArrow=classic;html=1;rounded=0;dashed=1;dashPattern=8 8;entryX=0.5;entryY=1;entryDx=0;entryDy=0;exitX=1.007;exitY=0.42;exitDx=0;exitDy=0;exitPerimeter=0;" parent="1" source="kUVER4uhqFUnGBVt8rP3-7" target="kUVER4uhqFUnGBVt8rP3-36" edge="1">
          <mxGeometry width="50" height="50" relative="1" as="geometry">
            <mxPoint x="430" y="470" as="sourcePoint" />
            <mxPoint x="518" y="492" as="targetPoint" />
          </mxGeometry>
        </mxCell>
        <mxCell id="kUVER4uhqFUnGBVt8rP3-42" value="&amp;lt;&amp;lt;extend&amp;gt;&amp;gt;" style="edgeLabel;html=1;align=center;verticalAlign=middle;resizable=0;points=[];" parent="kUVER4uhqFUnGBVt8rP3-41" vertex="1" connectable="0">
          <mxGeometry x="-0.2258" y="-1" relative="1" as="geometry">
            <mxPoint x="-8" as="offset" />
          </mxGeometry>
        </mxCell>
        <mxCell id="kUVER4uhqFUnGBVt8rP3-43" value="" style="endArrow=none;html=1;rounded=0;entryX=-0.005;entryY=0.348;entryDx=0;entryDy=0;entryPerimeter=0;" parent="1" target="kUVER4uhqFUnGBVt8rP3-24" edge="1">
          <mxGeometry width="50" height="50" relative="1" as="geometry">
            <mxPoint x="180" y="530" as="sourcePoint" />
            <mxPoint x="305" y="880" as="targetPoint" />
          </mxGeometry>
        </mxCell>
        <mxCell id="k68POlpQmFoL84LxKLVE-1" value="Gerenciar clientes" style="ellipse;whiteSpace=wrap;html=1;" vertex="1" parent="1">
          <mxGeometry x="290" y="1070" width="120" height="80" as="geometry" />
        </mxCell>
        <mxCell id="k68POlpQmFoL84LxKLVE-3" value="" style="endArrow=none;html=1;rounded=0;entryX=0.033;entryY=0.308;entryDx=0;entryDy=0;entryPerimeter=0;" edge="1" parent="1" target="k68POlpQmFoL84LxKLVE-1">
          <mxGeometry width="50" height="50" relative="1" as="geometry">
            <mxPoint x="180" y="530" as="sourcePoint" />
            <mxPoint x="299" y="998" as="targetPoint" />
          </mxGeometry>
        </mxCell>
      </root>
    </mxGraphModel>
  </diagram>
</mxfile>
